<?xml version="1.0" encoding="UTF-8" standalone="no"?>
<!-- Created with Inkscape (http://www.inkscape.org/) -->

<svg
   xmlns:dc="http://purl.org/dc/elements/1.1/"
   xmlns:cc="http://creativecommons.org/ns#"
   xmlns:rdf="http://www.w3.org/1999/02/22-rdf-syntax-ns#"
   xmlns:svg="http://www.w3.org/2000/svg"
   xmlns="http://www.w3.org/2000/svg"
   xmlns:xlink="http://www.w3.org/1999/xlink"
   xmlns:sodipodi="http://sodipodi.sourceforge.net/DTD/sodipodi-0.dtd"
   xmlns:inkscape="http://www.inkscape.org/namespaces/inkscape"
   width="150"
   height="925"
   id="svg3813"
   version="1.1"
   inkscape:version="0.48.2 r9819"
   sodipodi:docname="clouds.svg">
  <defs
     id="defs3815">
    <linearGradient
       id="linearGradient3784">
      <stop
         id="stop3792"
         offset="0"
         style="stop-color:#ffffff;stop-opacity:1;" />
      <stop
         style="stop-color:#f9f9c0;stop-opacity:0.97647059;"
         offset="1"
         id="stop3788" />
    </linearGradient>
    <linearGradient
       inkscape:collect="always"
       xlink:href="#linearGradient3784"
       id="linearGradient3790"
       x1="-3.6947085e-09"
       y1="589.86212"
       x2="150"
       y2="589.86212"
       gradientUnits="userSpaceOnUse" />
  </defs>
  <sodipodi:namedview
     id="base"
     pagecolor="#ffffff"
     bordercolor="#666666"
     borderopacity="1.0"
     inkscape:pageopacity="0.0"
     inkscape:pageshadow="2"
     inkscape:zoom="0.64540541"
     inkscape:cx="-744.63987"
     inkscape:cy="462.5"
     inkscape:document-units="px"
     inkscape:current-layer="layer1"
     showgrid="false"
     inkscape:window-width="2560"
     inkscape:window-height="1313"
     inkscape:window-x="0"
     inkscape:window-y="0"
     inkscape:window-maximized="1" />
  <metadata
     id="metadata3818">
    <rdf:RDF>
      <cc:Work
         rdf:about="">
        <dc:format>image/svg+xml</dc:format>
        <dc:type
           rdf:resource="http://purl.org/dc/dcmitype/StillImage" />
        <dc:title />
      </cc:Work>
    </rdf:RDF>
  </metadata>
  <g
     inkscape:label="Layer 1"
     inkscape:groupmode="layer"
     id="layer1"
     transform="translate(0,-127.36218)">
    <path
       style="fill:url(#linearGradient3790);fill-opacity:1.0;stroke:#000000;stroke-width:0.43784463000000001;stroke-opacity:0"
       d="m 0.58667106,127.5811 c -0.82743468,336.2189 0,619.59255 0,924.5621 C 60.98908,1052.1431 110.17952,1005.8776 110.17952,948.80554 c 0,-16.24814 -3.97874,-31.61533 -11.050257,-45.29355 31.036807,-25.37811 50.651817,-62.64261 50.651817,-104.17806 0,-44.65843 -22.66062,-84.36466 -57.825801,-109.68398 10.402991,-12.44765 16.430741,-27.1805 16.430741,-42.97525 0,-16.49129 -6.55452,-31.81717 -17.819255,-44.59807 31.863855,-25.83071 52.242815,-65.33397 52.242815,-109.59705 0,-37.47302 -14.59744,-71.52117 -38.41554,-96.75953 17.55021,-19.05098 28.03062,-43.15516 28.03062,-69.34577 0,-39.57524 -23.93398,-74.33098 -60.024277,-94.18045 3.612886,-8.85516 5.611908,-18.5314 5.611908,-28.6888 0,-41.92721 -35.572546,-75.92393 -77.42561994,-75.92393 z"
       id="path3821"
       inkscape:connector-curvature="0"
       sodipodi:nodetypes="ccscscscscscsc" />
  </g>
</svg>
